HIERARCHY
ROOT mixamorig:Hips
{
	OFFSET 0.00 0.00 0.00
	CHANNELS 6 Xposition Yposition Zposition Zrotation Yrotation Xrotation
	JOINT mixamorig:Spine
	{
		OFFSET	-0.0379	9.4905	-1.3921
		CHANNELS 3 Zrotation Yrotation Xrotation
		JOINT mixamorig:Spine1
		{
			OFFSET	-0.0442	11.0722	-1.6241
			CHANNELS 3 Zrotation Yrotation Xrotation
			JOINT mixamorig:Spine2
			{
				OFFSET	-0.0506	12.6540	-1.8561
				CHANNELS 3 Zrotation Yrotation Xrotation
				JOINT mixamorig:Neck
				{
					OFFSET	-0.0569	14.2358	-2.0881
					CHANNELS 3 Zrotation Yrotation Xrotation
					JOINT mixamorig:Head
					{
						OFFSET	0.0000	3.2802	0.3133
						CHANNELS 3 Zrotation Yrotation Xrotation
						End Site
						{
							OFFSET 0.0000 25.6535 2.4505
						}
					}
				}
				JOINT mixamorig:LeftShoulder
				{
					OFFSET	6.7288	11.7566	-2.0585
					CHANNELS 3 Zrotation Yrotation Xrotation
					JOINT mixamorig:LeftArm
					{
						OFFSET	13.5713	-4.9583	0.0593
						CHANNELS 3 Zrotation Yrotation Xrotation
						JOINT mixamorig:LeftForeArm
						{
							OFFSET	17.2582	-15.4446	-0.1304
							CHANNELS 3 Zrotation Yrotation Xrotation
							JOINT mixamorig:LeftHand
							{
								OFFSET	19.1747	-11.8144	8.4973
								CHANNELS 3 Zrotation Yrotation Xrotation
								JOINT mixamorig:LeftHandThumb1
								{
									OFFSET	1.4152	-3.1459	3.3921
									CHANNELS 3 Zrotation Yrotation Xrotation
									JOINT mixamorig:LeftHandThumb2
									{
										OFFSET	1.1321	-2.5167	2.7137
										CHANNELS 3 Zrotation Yrotation Xrotation
										JOINT mixamorig:LeftHandThumb3
										{
											OFFSET	0.8208	-4.0642	2.2357
											CHANNELS 3 Zrotation Yrotation Xrotation
											End Site
											{
												OFFSET 1.6034 -3.3436 0.9597
											}
										}
									}
								}
								JOINT mixamorig:LeftHandIndex1
								{
									OFFSET	9.2608	-6.0923	10.0311
									CHANNELS 3 Zrotation Yrotation Xrotation
									JOINT mixamorig:LeftHandIndex2
									{
										OFFSET	2.1918	-1.7186	1.6722
										CHANNELS 3 Zrotation Yrotation Xrotation
										JOINT mixamorig:LeftHandIndex3
										{
											OFFSET	1.7360	-1.7660	0.9701
											CHANNELS 3 Zrotation Yrotation Xrotation
											End Site
											{
												OFFSET 2.0655 -2.6048 1.4660
											}
										}
									}
								}
								JOINT mixamorig:LeftHandMiddle1
								{
									OFFSET	10.5922	-6.2980	7.4687
									CHANNELS 3 Zrotation Yrotation Xrotation
									JOINT mixamorig:LeftHandMiddle2
									{
										OFFSET	2.5325	-1.7582	1.0567
										CHANNELS 3 Zrotation Yrotation Xrotation
										JOINT mixamorig:LeftHandMiddle3
										{
											OFFSET	1.4253	-2.1413	0.5937
											CHANNELS 3 Zrotation Yrotation Xrotation
											End Site
											{
												OFFSET 1.4359 -3.3336 0.5679
											}
										}
									}
								}
								JOINT mixamorig:LeftHandRing1
								{
									OFFSET	11.3894	-6.2561	4.0229
									CHANNELS 3 Zrotation Yrotation Xrotation
									JOINT mixamorig:LeftHandRing2
									{
										OFFSET	2.1076	-1.6023	0.6135
										CHANNELS 3 Zrotation Yrotation Xrotation
										JOINT mixamorig:LeftHandRing3
										{
											OFFSET	0.7822	-1.9700	0.2509
											CHANNELS 3 Zrotation Yrotation Xrotation
											End Site
											{
												OFFSET 0.4716 -2.6865 0.5721
											}
										}
									}
								}
								JOINT mixamorig:LeftHandPinky1
								{
									OFFSET	10.9033	-6.8431	1.2170
									CHANNELS 3 Zrotation Yrotation Xrotation
									JOINT mixamorig:LeftHandPinky2
									{
										OFFSET	1.0521	-1.1494	-0.0577
										CHANNELS 3 Zrotation Yrotation Xrotation
										JOINT mixamorig:LeftHandPinky3
										{
											OFFSET	0.2801	-1.5065	0.1598
											CHANNELS 3 Zrotation Yrotation Xrotation
											End Site
											{
												OFFSET 0.6358 -1.4513 0.5238
											}
										}
									}
								}
							}
						}
					}
				}
				JOINT mixamorig:RightShoulder
				{
					OFFSET	-6.8238	11.7566	-2.1177
					CHANNELS 3 Zrotation Yrotation Xrotation
					JOINT mixamorig:RightArm
					{
						OFFSET	-13.5338	-4.9583	-0.0593
						CHANNELS 3 Zrotation Yrotation Xrotation
						JOINT mixamorig:RightForeArm
						{
							OFFSET	-17.2582	-15.4446	-0.1126
							CHANNELS 3 Zrotation Yrotation Xrotation
							JOINT mixamorig:RightHand
							{
								OFFSET	-19.1747	-11.8143	8.6982
								CHANNELS 3 Zrotation Yrotation Xrotation
								JOINT mixamorig:RightHandThumb1
								{
									OFFSET	-1.4504	-3.2286	3.3657
									CHANNELS 3 Zrotation Yrotation Xrotation
									JOINT mixamorig:RightHandThumb2
									{
										OFFSET	-1.1603	-2.5829	2.6926
										CHANNELS 3 Zrotation Yrotation Xrotation
										JOINT mixamorig:RightHandThumb3
										{
											OFFSET	-0.8066	-4.0900	2.2727
											CHANNELS 3 Zrotation Yrotation Xrotation
											End Site
											{
												OFFSET -1.3619 -3.3561 1.1081
											}
										}
									}
								}
								JOINT mixamorig:RightHandIndex1
								{
									OFFSET	-9.3119	-5.9977	10.0611
									CHANNELS 3 Zrotation Yrotation Xrotation
									JOINT mixamorig:RightHandIndex2
									{
										OFFSET	-2.1048	-1.8288	1.6029
										CHANNELS 3 Zrotation Yrotation Xrotation
										JOINT mixamorig:RightHandIndex3
										{
											OFFSET	-1.7590	-1.7055	0.9784
											CHANNELS 3 Zrotation Yrotation Xrotation
											End Site
											{
												OFFSET -2.1656 -2.6293 1.3206
											}
										}
									}
								}
								JOINT mixamorig:RightHandMiddle1
								{
									OFFSET	-10.8050	-6.3490	7.3536
									CHANNELS 3 Zrotation Yrotation Xrotation
									JOINT mixamorig:RightHandMiddle2
									{
										OFFSET	-2.3752	-1.6487	1.1901
										CHANNELS 3 Zrotation Yrotation Xrotation
										JOINT mixamorig:RightHandMiddle3
										{
											OFFSET	-1.3712	-2.2392	0.4981
											CHANNELS 3 Zrotation Yrotation Xrotation
											End Site
											{
												OFFSET -1.5574 -2.6423 0.6323
											}
										}
									}
								}
								JOINT mixamorig:RightHandRing1
								{
									OFFSET	-10.9108	-6.1334	3.9079
									CHANNELS 3 Zrotation Yrotation Xrotation
									JOINT mixamorig:RightHandRing2
									{
										OFFSET	-2.1215	-1.2548	0.4888
										CHANNELS 3 Zrotation Yrotation Xrotation
										JOINT mixamorig:RightHandRing3
										{
											OFFSET	-1.1529	-1.8295	0.3881
											CHANNELS 3 Zrotation Yrotation Xrotation
											End Site
											{
												OFFSET -1.1314 -2.8340 0.3221
											}
										}
									}
								}
								JOINT mixamorig:RightHandPinky1
								{
									OFFSET	-11.0147	-6.9107	1.0680
									CHANNELS 3 Zrotation Yrotation Xrotation
									JOINT mixamorig:RightHandPinky2
									{
										OFFSET	-0.9868	-1.3546	0.1104
										CHANNELS 3 Zrotation Yrotation Xrotation
										JOINT mixamorig:RightHandPinky3
										{
											OFFSET	-0.2187	-1.3359	0.1675
											CHANNELS 3 Zrotation Yrotation Xrotation
											End Site
											{
												OFFSET -0.5717 -1.4745 0.5311
											}
										}
									}
								}
							}
						}
					}
				}
			}
		}
	}
	JOINT mixamorig:LeftUpLeg
	{
		OFFSET	9.6182	-5.2725	-1.0109
		CHANNELS 3 Zrotation Yrotation Xrotation
		JOINT mixamorig:LeftLeg
		{
			OFFSET	1.3853	-43.3265	-1.1856
			CHANNELS 3 Zrotation Yrotation Xrotation
			JOINT mixamorig:LeftFoot
			{
				OFFSET	1.1958	-44.1070	-5.7230
				CHANNELS 3 Zrotation Yrotation Xrotation
				JOINT mixamorig:LeftToeBase
				{
					OFFSET	2.5995	-11.8143	15.8139
					CHANNELS 3 Zrotation Yrotation Xrotation
					End Site
					{
						OFFSET 1.2230 0.0445 7.9736
					}
				}
			}
		}
	}
	JOINT mixamorig:RightUpLeg
	{
		OFFSET	-9.9411	-5.2725	-1.2117
		CHANNELS 3 Zrotation Yrotation Xrotation
		JOINT mixamorig:RightLeg
		{
			OFFSET	-1.3852	-43.3265	-0.5841
			CHANNELS 3 Zrotation Yrotation Xrotation
			JOINT mixamorig:RightFoot
			{
				OFFSET	-1.1958	-44.1069	-6.3865
				CHANNELS 3 Zrotation Yrotation Xrotation
				JOINT mixamorig:RightToeBase
				{
					OFFSET	-2.5995	-11.8146	15.9998
					CHANNELS 3 Zrotation Yrotation Xrotation
					End Site
					{
						OFFSET -1.2231 0.0444 7.9271
					}
				}
			}
		}
	}
}
MOTION
Frames: 4
Frame Time: 0.0333333
0.2504 103.4783 1.4192 -1.0823 -0.1326 -1.5190 0.0314 -0.1320 0.9679 0.1021 -2.4805 1.0155 0.1456 -2.4776 1.0086 -1.4682 0.8106 -2.7715 3.5307 -1.8728 5.4707 6.9045 7.3707 0.5337 -39.2635 -20.3238 14.4344 -9.1991 -7.9170 -3.0097 -7.7927 18.8778 18.7282 -6.1210 10.0237 -9.8889 16.4262 8.1873 -3.5978 -7.9647 -8.3165 -10.7963 -12.8166 -1.3920 7.5918 -25.6841 -6.2799 10.5173 -10.0386 2.5484 8.2684 -22.0631 -11.3290 5.9112 -2.5251 -0.6035 0.4366 -3.9902 -0.4357 0.7864 -26.4139 -16.3422 4.0464 13.5347 1.1209 -2.9401 1.1298 2.3906 8.1366 -29.0701 -21.3720 -0.7841 10.5032 2.9511 8.6555 -19.6199 2.5396 14.4921 -11.0525 2.5642 0.5120 42.3555 22.9202 12.0507 9.3377 5.7424 -1.5719 2.6777 -22.8101 8.7378 -6.2594 -10.9874 8.9963 -10.2438 1.3553 -12.4872 6.2378 7.9915 -12.6698 1.0807 -3.6712 3.9949 32.2010 5.4911 14.0339 1.6913 -0.6131 1.6183 14.4103 3.3713 7.2967 5.5496 4.5173 -2.0142 4.4037 -2.0050 1.7045 28.3290 15.4202 6.7052 -4.8477 -2.6979 1.4957 -1.8423 -1.0215 -2.7303 13.2670 14.8739 -4.0985 -10.1044 -3.3719 7.4100 18.4573 -1.7896 14.1998 0.5783 4.1487 -13.2191 5.2035 8.6785 24.4138 -2.5076 1.9019 -9.1846 -0.0000 0.0000 -0.4642 -2.6326 -13.9157 -12.9570 -2.9915 -4.0284 19.3996 5.2900 -3.7925 -3.6189 0.0000 0.0000 -0.0000 
0.4402 103.4316 1.3808 -1.1884 -0.1508 -1.5412 0.0303 -0.1176 1.0053 0.0869 -2.4608 1.0860 0.1318 -2.4581 1.0796 -1.4175 0.7921 -2.7398 3.5759 -1.8894 5.4252 6.9661 7.2303 0.5335 -39.3451 -20.4559 14.4620 -9.2008 -7.8985 -2.9977 -7.7892 18.8402 18.7865 -6.1142 10.0322 -9.8911 16.4186 8.1906 -3.6099 -7.9666 -8.3173 -10.7961 -12.9080 -1.3870 7.6539 -25.5119 -6.3006 10.4132 -9.9557 2.5464 8.2261 -22.1793 -11.3392 5.9629 -2.4033 -0.6018 0.3885 -3.9281 -0.4360 0.7626 -26.5097 -16.3813 4.0603 13.5869 1.1234 -2.9563 1.1581 2.3907 8.1271 -29.2312 -21.4134 -0.7691 10.5032 2.9511 8.6555 -19.6210 2.5397 14.4924 -10.9033 2.8123 0.5178 42.2507 23.0065 12.0558 9.3345 5.7930 -1.6043 2.6401 -22.7951 8.6794 -6.3585 -11.0224 8.9430 -10.1884 1.3565 -12.5361 6.2416 7.9921 -12.6670 1.1322 -3.6234 3.9883 32.1852 5.4938 14.0248 1.6448 -0.6161 1.5958 14.5817 3.4306 7.3516 5.4773 4.5145 -2.0457 4.3256 -2.0183 1.6662 28.4591 15.4874 6.7224 -4.9231 -2.6980 1.4772 -1.8945 -1.0324 -2.7496 13.4805 14.9454 -4.0777 -10.1283 -3.3705 7.4034 18.3581 -1.7857 14.1658 0.5905 4.1954 -13.3900 5.1842 8.6262 24.7583 -2.3865 1.9294 -9.3675 0.0000 0.0000 -0.4458 -2.6190 -14.0174 -13.0046 -3.0594 -4.0324 19.4609 5.4142 -3.6614 -3.5675 -0.0000 0.0000 -0.0000 
0.6240 103.3956 1.3678 -1.2862 -0.1580 -1.5673 0.0276 -0.1028 1.0375 0.0694 -2.4364 1.1479 0.1156 -2.4338 1.1421 -1.3728 0.7769 -2.6851 3.6188 -1.9065 5.4252 7.0058 7.1681 0.5348 -39.3664 -20.5064 14.4554 -9.2030 -7.8737 -2.9817 -7.7564 18.8012 18.8587 -6.1078 10.0411 -9.8921 16.4106 8.1944 -3.6237 -7.9697 -8.3201 -10.7985 -12.9971 -1.3794 7.7168 -25.3539 -6.3193 10.3177 -9.8789 2.5445 8.1869 -22.3070 -11.3463 6.0226 -2.2915 -0.6001 0.3444 -3.8706 -0.4363 0.7405 -26.6247 -16.4166 4.0857 13.6343 1.1257 -2.9710 1.1846 2.3908 8.1183 -29.4389 -21.4474 -0.7288 10.5032 2.9511 8.6555 -19.6217 2.5397 14.4926 -10.8289 2.9604 0.5203 42.2573 23.0723 12.0873 9.3327 5.8202 -1.6217 2.7081 -22.8333 8.5011 -6.4287 -11.0471 8.9160 -10.1453 1.3576 -12.5737 6.2442 7.9932 -12.6666 1.2293 -3.6004 4.0401 32.1354 5.5020 13.9960 1.5633 -0.6215 1.5564 14.5972 3.4546 7.3417 5.5049 4.5155 -2.0337 4.2498 -2.0090 1.6438 28.4319 15.5370 6.6791 -4.8382 -2.6979 1.4980 -1.9287 -1.0189 -2.7530 13.4957 14.9886 -4.1296 -10.0439 -3.3755 7.4265 18.3131 -1.7840 14.1504 0.6030 4.2389 -13.5053 5.1368 8.5663 25.0309 -2.2591 1.9681 -9.5324 -0.0000 0.0000 -0.4395 -2.6159 -14.1084 -13.0020 -3.1320 -4.0563 19.4714 5.5424 -3.5324 -3.5093 0.0000 -0.0000 -0.0000 
0.7883 103.3909 1.4249 -1.3547 -0.1368 -1.6122 0.0204 -0.0885 1.0569 0.0448 -2.4013 1.1896 0.0922 -2.3989 1.1848 -1.3556 0.7739 -2.5682 3.6564 -1.9236 5.5316 7.0104 7.1503 0.5355 -39.3291 -20.5079 14.4304 -9.2056 -7.8440 -2.9625 -7.7073 18.7734 18.9366 -6.1026 10.0491 -9.8911 16.4020 8.1995 -3.6412 -7.9767 -8.3285 -10.8081 -13.0375 -1.3735 7.7474 -25.2819 -6.3277 10.2742 -9.8439 2.5436 8.1690 -22.4178 -11.3520 6.0745 -2.2406 -0.5993 0.3243 -3.8444 -0.4364 0.7305 -26.7584 -16.4410 4.1278 13.6547 1.1267 -2.9773 1.1974 2.3908 8.1140 -29.7192 -21.4596 -0.6375 10.5032 2.9511 8.6555 -19.6216 2.5397 14.4926 -10.7972 3.0477 0.5215 42.3354 23.1298 12.1511 9.3314 5.8407 -1.6348 2.8384 -22.9028 8.2576 -6.3548 -11.0357 8.9090 -10.1968 1.3617 -12.5073 6.2321 7.9774 -12.6478 1.4445 -3.6465 4.2484 31.9894 5.5262 13.9117 1.3910 -0.6331 1.4730 14.0939 3.3818 7.0995 5.8506 4.5286 -1.8832 4.1957 -1.9290 1.6772 27.9014 15.5485 6.4299 -4.2540 -2.6978 1.6415 -1.9033 -0.9271 -2.7047 12.8711 14.9546 -4.4374 -9.6182 -3.4010 7.5430 18.4379 -1.7888 14.1931 0.6159 4.2442 -13.4580 5.0183 8.5068 25.1085 -2.1198 2.0402 -9.6483 0.0000 0.0000 -0.4544 -2.6484 -14.1591 -12.8520 -3.2132 -4.1303 19.3426 5.6797 -3.4220 -3.4365 -0.0000 -0.0000 -0.0000 
